<svg xmlns="http://www.w3.org/2000/svg" xmlns:xlink="http://www.w3.org/1999/xlink" zoomAndPan="magnify" preserveAspectRatio="xMidYMid meet" version="1.0" viewBox="25.85 152.19 309.56 77.73"><defs><g/><clipPath id="57cc92e428"><path d="M 67 152.191406 L 155.597656 152.191406 L 155.597656 208 L 67 208 Z M 67 152.191406 " clip-rule="nonzero"/></clipPath><clipPath id="505f74509d"><path d="M 25.847656 185 L 77 185 L 77 192 L 25.847656 192 Z M 25.847656 185 " clip-rule="nonzero"/></clipPath><clipPath id="6cdd9f2dae"><path d="M 154.199219 205.527344 L 335.40625 205.527344 L 335.40625 229.917969 L 154.199219 229.917969 Z M 154.199219 205.527344 " clip-rule="nonzero"/></clipPath></defs><g clip-path="url(#57cc92e428)"><path fill="#E11D48" d="M 155.632812 167.386719 L 146.660156 204.660156 C 146.660156 205.015625 146.589844 205.359375 146.453125 205.691406 C 146.316406 206.023438 146.121094 206.3125 145.867188 206.566406 C 145.613281 206.820312 145.320312 207.015625 144.992188 207.152344 C 144.660156 207.289062 144.316406 207.359375 143.957031 207.359375 L 83.492188 207.800781 C 83.136719 207.796875 82.789062 207.726562 82.460938 207.589844 C 82.128906 207.453125 81.835938 207.257812 81.585938 207.003906 C 81.332031 206.75 81.136719 206.460938 81 206.128906 C 80.859375 205.796875 80.792969 205.453125 80.789062 205.097656 L 80.789062 167.382812 C 80.789062 167.308594 80.792969 167.234375 80.800781 167.160156 L 79.984375 159.863281 L 71.042969 159.863281 C 70.550781 159.84375 70.078125 159.734375 69.625 159.53125 C 69.175781 159.328125 68.777344 159.046875 68.433594 158.691406 C 68.09375 158.332031 67.828125 157.925781 67.644531 157.464844 C 67.457031 157.007812 67.367188 156.53125 67.367188 156.035156 C 67.367188 155.542969 67.457031 155.066406 67.644531 154.605469 C 67.828125 154.148438 68.09375 153.738281 68.433594 153.382812 C 68.777344 153.023438 69.175781 152.746094 69.625 152.542969 C 70.078125 152.339844 70.550781 152.226562 71.042969 152.207031 L 86.820312 152.207031 C 86.824219 152.222656 86.824219 152.234375 86.820312 152.25 L 87.675781 159.867188 L 88.214844 164.683594 L 152.929688 164.683594 C 153.289062 164.683594 153.632812 164.753906 153.964844 164.890625 C 154.296875 165.027344 154.585938 165.222656 154.839844 165.476562 C 155.09375 165.730469 155.289062 166.023438 155.425781 166.355469 C 155.5625 166.683594 155.632812 167.027344 155.632812 167.386719 Z M 155.632812 167.386719 " fill-opacity="1" fill-rule="nonzero"/></g><path fill="#E11D48" d="M 99.605469 220.054688 C 99.605469 220.703125 99.542969 221.34375 99.414062 221.976562 C 99.289062 222.609375 99.101562 223.226562 98.855469 223.824219 C 98.609375 224.421875 98.304688 224.988281 97.945312 225.527344 C 97.585938 226.066406 97.175781 226.5625 96.71875 227.019531 C 96.261719 227.476562 95.765625 227.882812 95.226562 228.242188 C 94.691406 228.601562 94.121094 228.90625 93.523438 229.152344 C 92.929688 229.402344 92.3125 229.589844 91.675781 229.714844 C 91.042969 229.839844 90.402344 229.902344 89.757812 229.902344 C 89.109375 229.902344 88.46875 229.839844 87.835938 229.714844 C 87.199219 229.589844 86.585938 229.402344 85.988281 229.152344 C 85.390625 228.90625 84.824219 228.601562 84.285156 228.242188 C 83.746094 227.882812 83.25 227.476562 82.792969 227.019531 C 82.335938 226.5625 81.925781 226.066406 81.566406 225.527344 C 81.207031 224.988281 80.90625 224.421875 80.65625 223.824219 C 80.410156 223.226562 80.222656 222.609375 80.097656 221.976562 C 79.972656 221.34375 79.90625 220.703125 79.90625 220.054688 C 79.90625 219.410156 79.972656 218.769531 80.097656 218.132812 C 80.222656 217.5 80.410156 216.882812 80.65625 216.285156 C 80.90625 215.6875 81.207031 215.121094 81.566406 214.582031 C 81.925781 214.046875 82.335938 213.546875 82.792969 213.089844 C 83.25 212.632812 83.746094 212.226562 84.285156 211.867188 C 84.824219 211.507812 85.390625 211.203125 85.988281 210.957031 C 86.585938 210.710938 87.199219 210.523438 87.835938 210.394531 C 88.46875 210.269531 89.109375 210.207031 89.757812 210.207031 C 90.402344 210.207031 91.042969 210.269531 91.675781 210.394531 C 92.3125 210.523438 92.929688 210.710938 93.523438 210.957031 C 94.121094 211.203125 94.691406 211.507812 95.226562 211.867188 C 95.765625 212.226562 96.261719 212.632812 96.71875 213.089844 C 97.175781 213.546875 97.585938 214.046875 97.945312 214.582031 C 98.304688 215.121094 98.609375 215.6875 98.855469 216.285156 C 99.101562 216.882812 99.289062 217.5 99.414062 218.132812 C 99.542969 218.769531 99.605469 219.410156 99.605469 220.054688 Z M 99.605469 220.054688 " fill-opacity="1" fill-rule="nonzero"/><path fill="#E11D48" d="M 127.398438 220.054688 C 127.398438 220.703125 127.335938 221.34375 127.210938 221.976562 C 127.085938 222.609375 126.898438 223.226562 126.652344 223.824219 C 126.402344 224.421875 126.101562 224.988281 125.742188 225.527344 C 125.382812 226.066406 124.972656 226.5625 124.515625 227.019531 C 124.058594 227.476562 123.5625 227.882812 123.023438 228.242188 C 122.484375 228.601562 121.917969 228.90625 121.320312 229.152344 C 120.722656 229.402344 120.105469 229.589844 119.472656 229.714844 C 118.839844 229.839844 118.199219 229.902344 117.550781 229.902344 C 116.90625 229.902344 116.265625 229.839844 115.628906 229.714844 C 114.996094 229.589844 114.378906 229.402344 113.78125 229.152344 C 113.183594 228.90625 112.617188 228.601562 112.082031 228.242188 C 111.542969 227.882812 111.046875 227.476562 110.585938 227.019531 C 110.128906 226.5625 109.722656 226.066406 109.363281 225.527344 C 109.003906 224.988281 108.699219 224.421875 108.453125 223.824219 C 108.207031 223.226562 108.019531 222.609375 107.894531 221.976562 C 107.765625 221.34375 107.703125 220.703125 107.703125 220.054688 C 107.703125 219.410156 107.765625 218.769531 107.894531 218.132812 C 108.019531 217.5 108.207031 216.882812 108.453125 216.285156 C 108.699219 215.6875 109.003906 215.121094 109.363281 214.582031 C 109.722656 214.046875 110.128906 213.546875 110.585938 213.089844 C 111.046875 212.632812 111.542969 212.226562 112.082031 211.867188 C 112.617188 211.507812 113.183594 211.203125 113.78125 210.957031 C 114.378906 210.710938 114.996094 210.523438 115.628906 210.394531 C 116.265625 210.269531 116.90625 210.207031 117.550781 210.207031 C 118.199219 210.207031 118.839844 210.269531 119.472656 210.394531 C 120.105469 210.523438 120.722656 210.710938 121.320312 210.957031 C 121.917969 211.203125 122.484375 211.507812 123.023438 211.867188 C 123.5625 212.226562 124.058594 212.632812 124.515625 213.089844 C 124.972656 213.546875 125.382812 214.046875 125.742188 214.582031 C 126.101562 215.121094 126.402344 215.6875 126.652344 216.285156 C 126.898438 216.882812 127.085938 217.5 127.210938 218.132812 C 127.335938 218.769531 127.398438 219.410156 127.398438 220.054688 Z M 127.398438 220.054688 " fill-opacity="1" fill-rule="nonzero"/><path fill="#E11D48" d="M 51.675781 167.964844 L 74.21875 167.964844 C 74.566406 167.964844 74.902344 168.03125 75.222656 168.164062 C 75.542969 168.300781 75.828125 168.488281 76.074219 168.734375 C 76.320312 168.980469 76.511719 169.265625 76.644531 169.585938 C 76.777344 169.910156 76.84375 170.242188 76.84375 170.59375 L 76.84375 171.25 C 76.84375 171.597656 76.777344 171.933594 76.644531 172.253906 C 76.511719 172.574219 76.320312 172.859375 76.074219 173.105469 C 75.828125 173.351562 75.542969 173.542969 75.222656 173.675781 C 74.902344 173.808594 74.566406 173.875 74.21875 173.875 L 51.675781 173.875 C 51.324219 173.875 50.992188 173.808594 50.667969 173.675781 C 50.347656 173.542969 50.0625 173.351562 49.816406 173.105469 C 49.570312 172.859375 49.382812 172.574219 49.246094 172.253906 C 49.113281 171.933594 49.046875 171.597656 49.046875 171.25 L 49.046875 170.59375 C 49.046875 170.242188 49.113281 169.910156 49.246094 169.585938 C 49.382812 169.265625 49.570312 168.980469 49.816406 168.734375 C 50.0625 168.488281 50.347656 168.300781 50.667969 168.164062 C 50.992188 168.03125 51.324219 167.964844 51.675781 167.964844 Z M 51.675781 167.964844 " fill-opacity="1" fill-rule="nonzero"/><path fill="#E11D48" d="M 51.675781 204.734375 L 74.21875 204.734375 C 74.566406 204.734375 74.902344 204.800781 75.222656 204.933594 C 75.542969 205.066406 75.828125 205.257812 76.074219 205.503906 C 76.320312 205.75 76.511719 206.035156 76.644531 206.355469 C 76.777344 206.675781 76.84375 207.011719 76.84375 207.359375 L 76.84375 208.015625 C 76.84375 208.367188 76.777344 208.699219 76.644531 209.023438 C 76.511719 209.34375 76.320312 209.628906 76.074219 209.875 C 75.828125 210.121094 75.542969 210.308594 75.222656 210.445312 C 74.902344 210.578125 74.566406 210.644531 74.21875 210.644531 L 51.675781 210.644531 C 51.324219 210.644531 50.992188 210.578125 50.667969 210.445312 C 50.347656 210.308594 50.0625 210.121094 49.816406 209.875 C 49.570312 209.628906 49.382812 209.34375 49.246094 209.023438 C 49.113281 208.699219 49.046875 208.367188 49.046875 208.015625 L 49.046875 207.359375 C 49.046875 207.011719 49.113281 206.675781 49.246094 206.355469 C 49.382812 206.035156 49.570312 205.75 49.816406 205.503906 C 50.0625 205.257812 50.347656 205.066406 50.667969 204.933594 C 50.992188 204.800781 51.324219 204.734375 51.675781 204.734375 Z M 51.675781 204.734375 " fill-opacity="1" fill-rule="nonzero"/><g clip-path="url(#505f74509d)"><path fill="#E11D48" d="M 28.804688 185.914062 L 73.890625 185.914062 C 74.28125 185.914062 74.65625 185.988281 75.019531 186.136719 C 75.382812 186.289062 75.699219 186.5 75.976562 186.777344 C 76.253906 187.054688 76.46875 187.375 76.617188 187.738281 C 76.769531 188.097656 76.84375 188.476562 76.84375 188.867188 C 76.84375 189.257812 76.769531 189.636719 76.617188 189.996094 C 76.46875 190.359375 76.253906 190.679688 75.976562 190.957031 C 75.699219 191.234375 75.382812 191.445312 75.019531 191.597656 C 74.65625 191.746094 74.28125 191.820312 73.890625 191.820312 L 28.804688 191.820312 C 28.410156 191.820312 28.035156 191.746094 27.671875 191.597656 C 27.308594 191.445312 26.992188 191.234375 26.714844 190.957031 C 26.4375 190.679688 26.222656 190.359375 26.074219 189.996094 C 25.921875 189.636719 25.847656 189.257812 25.847656 188.867188 C 25.847656 188.476562 25.921875 188.097656 26.074219 187.738281 C 26.222656 187.375 26.4375 187.054688 26.714844 186.777344 C 26.992188 186.5 27.308594 186.289062 27.671875 186.136719 C 28.035156 185.988281 28.410156 185.914062 28.804688 185.914062 Z M 28.804688 185.914062 " fill-opacity="1" fill-rule="nonzero"/></g><g fill="#E11D48" fill-opacity="1"><g transform="translate(167.362732, 203.778192)"><g><path d="M 0.78125 0 L 0.78125 -41.1875 L 13.921875 -41.1875 L 15.296875 -14.921875 L 15.75 -14.921875 L 17.171875 -41.1875 L 30.28125 -41.1875 L 30.28125 0 L 21.203125 0 L 22.703125 -25.984375 L 22.171875 -25.984375 L 19.3125 0 L 11.75 0 L 8.8125 -25.984375 L 8.296875 -25.984375 L 9.90625 0 Z M 0.78125 0 "/></g></g></g><g fill="#E11D48" fill-opacity="1"><g transform="translate(201.960408, 203.778192)"><g><path d="M 5.578125 0.734375 C 4.285156 0.734375 3.28125 0.59375 2.5625 0.3125 C 1.84375 0.0390625 1.335938 -0.457031 1.046875 -1.1875 C 0.753906 -1.925781 0.609375 -2.992188 0.609375 -4.390625 C 0.609375 -5.878906 0.753906 -7.007812 1.046875 -7.78125 C 1.335938 -8.550781 1.84375 -9.078125 2.5625 -9.359375 C 3.28125 -9.640625 4.285156 -9.78125 5.578125 -9.78125 C 6.867188 -9.78125 7.875 -9.640625 8.59375 -9.359375 C 9.320312 -9.078125 9.832031 -8.550781 10.125 -7.78125 C 10.414062 -7.007812 10.5625 -5.878906 10.5625 -4.390625 C 10.5625 -2.992188 10.410156 -1.925781 10.109375 -1.1875 C 9.804688 -0.457031 9.296875 0.0390625 8.578125 0.3125 C 7.867188 0.59375 6.867188 0.734375 5.578125 0.734375 Z M 5.578125 0.734375 "/></g></g></g><g fill="#E11D48" fill-opacity="1"><g transform="translate(216.606385, 203.778192)"><g><path d="M 11.75 0.734375 C 9.570312 0.734375 7.765625 0.519531 6.328125 0.09375 C 4.890625 -0.332031 3.765625 -0.90625 2.953125 -1.625 C 2.148438 -2.351562 1.578125 -3.179688 1.234375 -4.109375 C 0.898438 -5.046875 0.734375 -6.03125 0.734375 -7.0625 L 0.734375 -13.71875 L 10.328125 -13.71875 L 10.328125 -6.96875 C 10.328125 -6.738281 10.390625 -6.535156 10.515625 -6.359375 C 10.648438 -6.179688 10.878906 -6.09375 11.203125 -6.09375 C 11.484375 -6.09375 11.691406 -6.175781 11.828125 -6.34375 C 11.972656 -6.507812 12.046875 -6.71875 12.046875 -6.96875 C 12.046875 -7.75 12.019531 -8.519531 11.96875 -9.28125 C 11.925781 -10.039062 11.820312 -10.722656 11.65625 -11.328125 C 11.351562 -12.597656 10.9375 -13.71875 10.40625 -14.6875 C 9.882812 -15.65625 9.285156 -16.539062 8.609375 -17.34375 C 7.929688 -18.15625 7.226562 -18.925781 6.5 -19.65625 C 5.78125 -20.394531 5.082031 -21.171875 4.40625 -21.984375 C 3.726562 -22.804688 3.113281 -23.71875 2.5625 -24.71875 C 2.019531 -25.71875 1.585938 -26.875 1.265625 -28.1875 C 0.941406 -29.5 0.78125 -31.035156 0.78125 -32.796875 L 0.78125 -34 C 0.863281 -36.851562 1.773438 -38.878906 3.515625 -40.078125 C 5.265625 -41.273438 7.726562 -41.875 10.90625 -41.875 C 13.34375 -41.875 15.335938 -41.550781 16.890625 -40.90625 C 18.453125 -40.257812 19.601562 -39.347656 20.34375 -38.171875 C 21.09375 -37.003906 21.46875 -35.644531 21.46875 -34.09375 L 21.46875 -29.125 L 12.234375 -29.125 L 12.234375 -34.21875 C 12.234375 -34.457031 12.15625 -34.65625 12 -34.8125 C 11.851562 -34.976562 11.640625 -35.0625 11.359375 -35.0625 C 11.097656 -35.0625 10.882812 -34.976562 10.71875 -34.8125 C 10.5625 -34.65625 10.484375 -34.445312 10.484375 -34.1875 C 10.484375 -33.644531 10.53125 -33.097656 10.625 -32.546875 C 10.726562 -32.003906 10.847656 -31.507812 10.984375 -31.0625 C 11.296875 -30.15625 11.710938 -29.332031 12.234375 -28.59375 C 12.753906 -27.863281 13.351562 -27.15625 14.03125 -26.46875 C 14.707031 -25.78125 15.410156 -25.054688 16.140625 -24.296875 C 16.867188 -23.546875 17.570312 -22.691406 18.25 -21.734375 C 18.925781 -20.785156 19.535156 -19.679688 20.078125 -18.421875 C 20.617188 -17.160156 21.050781 -15.6875 21.375 -14 C 21.695312 -12.3125 21.859375 -10.347656 21.859375 -8.109375 L 21.859375 -6.546875 C 21.816406 -4.910156 21.359375 -3.550781 20.484375 -2.46875 C 19.609375 -1.382812 18.421875 -0.578125 16.921875 -0.046875 C 15.429688 0.472656 13.707031 0.734375 11.75 0.734375 Z M 11.75 0.734375 "/></g></g></g><g fill="#E11D48" fill-opacity="1"><g transform="translate(242.726857, 203.778192)"><g><path d="M 0.78125 0 L 0.78125 -41.1875 L 11.203125 -41.1875 L 11.203125 -23.984375 L 12.90625 -23.984375 L 12.90625 -41.1875 L 23.3125 -41.1875 L 23.3125 0 L 12.90625 0 L 12.90625 -16.953125 L 11.203125 -16.953125 L 11.203125 0 Z M 0.78125 0 "/></g></g></g><g fill="#E11D48" fill-opacity="1"><g transform="translate(270.361115, 203.778192)"><g><path d="M 0.609375 -10.265625 L 0.609375 -31.125 C 0.609375 -34.632812 1.601562 -37.300781 3.59375 -39.125 C 5.59375 -40.957031 8.550781 -41.875 12.46875 -41.875 C 16.382812 -41.875 19.34375 -40.957031 21.34375 -39.125 C 23.34375 -37.289062 24.34375 -34.578125 24.34375 -30.984375 L 24.34375 -10.265625 C 24.34375 -6.648438 23.34375 -3.914062 21.34375 -2.0625 C 19.34375 -0.21875 16.382812 0.703125 12.46875 0.703125 C 8.550781 0.703125 5.617188 -0.222656 3.671875 -2.078125 C 1.722656 -3.941406 0.703125 -6.671875 0.609375 -10.265625 Z M 11.625 -8.9375 C 11.625 -8.351562 11.90625 -8.0625 12.46875 -8.0625 C 13.039062 -8.0625 13.328125 -8.351562 13.328125 -8.9375 L 13.328125 -32.3125 C 13.328125 -32.894531 13.039062 -33.1875 12.46875 -33.1875 C 11.90625 -33.1875 11.625 -32.894531 11.625 -32.3125 Z M 11.625 -8.9375 "/></g></g></g><g fill="#E11D48" fill-opacity="1"><g transform="translate(298.843088, 203.778192)"><g><path d="M 0.78125 0 L 0.78125 -41.1875 L 11.390625 -41.1875 C 13.078125 -41.1875 14.613281 -41.078125 16 -40.859375 C 17.382812 -40.648438 18.582031 -40.253906 19.59375 -39.671875 C 20.601562 -39.085938 21.375 -38.253906 21.90625 -37.171875 C 22.4375 -36.085938 22.703125 -34.679688 22.703125 -32.953125 L 22.703125 -17.78125 C 22.691406 -16.101562 22.410156 -14.734375 21.859375 -13.671875 C 21.316406 -12.609375 20.566406 -11.789062 19.609375 -11.21875 C 18.648438 -10.644531 17.535156 -10.242188 16.265625 -10.015625 C 14.992188 -9.796875 13.609375 -9.6875 12.109375 -9.6875 L 11.46875 -9.6875 L 11.46875 0 Z M 10.96875 -16.203125 L 11.71875 -16.203125 C 12.0625 -16.203125 12.304688 -16.296875 12.453125 -16.484375 C 12.609375 -16.679688 12.6875 -17.007812 12.6875 -17.46875 L 12.6875 -32.640625 C 12.6875 -33.128906 12.613281 -33.46875 12.46875 -33.65625 C 12.332031 -33.84375 12.0625 -33.9375 11.65625 -33.9375 L 10.96875 -33.9375 Z M 10.96875 -16.203125 "/></g></g></g><g clip-path="url(#6cdd9f2dae)"><path fill="#E11D48" d="M 154.199219 205.527344 L 335.402344 205.527344 L 335.402344 229.917969 L 154.199219 229.917969 Z M 154.199219 205.527344 " fill-opacity="1" fill-rule="nonzero"/></g><g fill="#ffffef" fill-opacity="1"><g transform="translate(171.976636, 225.129084)"><g><path d="M 13.609375 0.015625 C 12.523438 0.015625 11.984375 -0.101562 11.984375 -0.34375 L 11.609375 -7.625 L 9.390625 -0.25 C 9.347656 -0.101562 8.9375 -0.03125 8.15625 -0.03125 C 7.382812 -0.03125 6.988281 -0.0976562 6.96875 -0.234375 L 4.6875 -7.6875 L 4.421875 -0.453125 C 4.410156 -0.273438 4.179688 -0.148438 3.734375 -0.078125 C 3.285156 -0.015625 2.910156 0.015625 2.609375 0.015625 C 2.316406 0.015625 2.035156 0 1.765625 -0.03125 C 1.179688 -0.113281 0.894531 -0.265625 0.90625 -0.484375 L 1.328125 -12.28125 C 1.328125 -12.570312 2.0625 -12.71875 3.53125 -12.71875 C 3.96875 -12.71875 4.5 -12.679688 5.125 -12.609375 C 5.757812 -12.546875 6.113281 -12.421875 6.1875 -12.234375 L 8.21875 -6.515625 L 10 -12.25 C 10.101562 -12.5625 10.9375 -12.71875 12.5 -12.71875 C 12.945312 -12.71875 13.476562 -12.679688 14.09375 -12.609375 C 14.71875 -12.546875 15.03125 -12.429688 15.03125 -12.265625 L 15.5625 -0.359375 C 15.5625 -0.222656 15.328125 -0.125 14.859375 -0.0625 C 14.390625 -0.0078125 13.972656 0.015625 13.609375 0.015625 Z M 13.609375 0.015625 "/></g></g></g><g fill="#ffffef" fill-opacity="1"><g transform="translate(189.460505, 225.129084)"><g><path d="M 9.4375 0.03125 C 8.382812 0.03125 7.816406 -0.132812 7.734375 -0.46875 L 7.125 -2.8125 L 4.25 -2.8125 L 3.71875 -0.5625 C 3.644531 -0.1875 3.066406 0 1.984375 0 C 1.398438 0 0.96875 -0.03125 0.6875 -0.09375 C 0.40625 -0.164062 0.265625 -0.21875 0.265625 -0.25 L 3.484375 -12.53125 C 3.484375 -12.632812 4.3125 -12.6875 5.96875 -12.6875 C 7.625 -12.6875 8.453125 -12.632812 8.453125 -12.53125 L 11.59375 -0.234375 C 11.59375 -0.148438 11.3125 -0.0820312 10.75 -0.03125 C 10.195312 0.0078125 9.757812 0.03125 9.4375 0.03125 Z M 4.703125 -5.109375 L 6.609375 -5.109375 L 5.78125 -8.875 L 5.671875 -8.875 Z M 4.703125 -5.109375 "/></g></g></g><g fill="#ffffef" fill-opacity="1"><g transform="translate(202.374142, 225.129084)"><g><path d="M 4.375 -0.25 C 4.375 -0.0625 3.800781 0.03125 2.65625 0.03125 C 1.488281 0.03125 0.90625 -0.0546875 0.90625 -0.234375 L 0.90625 -12.0625 C 0.90625 -12.488281 1.128906 -12.703125 1.578125 -12.703125 L 5.046875 -12.703125 C 8.222656 -12.703125 9.8125 -11.460938 9.8125 -8.984375 C 9.8125 -8.234375 9.664062 -7.550781 9.375 -6.9375 C 9.082031 -6.320312 8.671875 -5.835938 8.140625 -5.484375 L 10.4375 -1.671875 C 10.332031 -1.378906 10.015625 -1.046875 9.484375 -0.671875 C 8.765625 -0.148438 8.164062 0.109375 7.6875 0.109375 C 7.21875 0.109375 6.867188 -0.0625 6.640625 -0.40625 L 4.9375 -4.375 L 4.375 -4.375 Z M 4.375 -9.484375 L 4.375 -6.765625 L 4.46875 -6.765625 C 5.613281 -6.765625 6.1875 -7.242188 6.1875 -8.203125 C 6.1875 -8.640625 6.070312 -8.960938 5.84375 -9.171875 C 5.625 -9.378906 5.257812 -9.484375 4.75 -9.484375 Z M 4.375 -9.484375 "/></g></g></g><g fill="#ffffef" fill-opacity="1"><g transform="translate(214.10896, 225.129084)"><g><path d="M 6.296875 0.1875 C 4.597656 0.1875 3.210938 -0.367188 2.140625 -1.484375 C 1.078125 -2.597656 0.546875 -4.222656 0.546875 -6.359375 C 0.546875 -8.492188 1.085938 -10.109375 2.171875 -11.203125 C 3.253906 -12.304688 4.648438 -12.859375 6.359375 -12.859375 C 8.066406 -12.859375 9.445312 -12.316406 10.5 -11.234375 C 11.550781 -10.148438 12.078125 -8.507812 12.078125 -6.3125 C 12.078125 -4.125 11.539062 -2.492188 10.46875 -1.421875 C 9.394531 -0.347656 8.003906 0.1875 6.296875 0.1875 Z M 6.3125 -9.375 C 5.726562 -9.375 5.238281 -9.109375 4.84375 -8.578125 C 4.457031 -8.046875 4.265625 -7.296875 4.265625 -6.328125 C 4.265625 -5.367188 4.453125 -4.632812 4.828125 -4.125 C 5.203125 -3.613281 5.691406 -3.359375 6.296875 -3.359375 C 6.910156 -3.359375 7.40625 -3.617188 7.78125 -4.140625 C 8.164062 -4.660156 8.359375 -5.398438 8.359375 -6.359375 C 8.359375 -7.328125 8.160156 -8.070312 7.765625 -8.59375 C 7.378906 -9.113281 6.894531 -9.375 6.3125 -9.375 Z M 6.3125 -9.375 "/></g></g></g><g fill="#ffffef" fill-opacity="1"><g transform="translate(227.76617, 225.129084)"><g><path d="M 8.34375 -3.453125 L 1.171875 -3.453125 C 0.960938 -3.453125 0.804688 -3.625 0.703125 -3.96875 C 0.660156 -4.15625 0.640625 -4.332031 0.640625 -4.5 C 0.640625 -4.664062 0.660156 -4.84375 0.703125 -5.03125 C 0.804688 -5.375 0.960938 -5.546875 1.171875 -5.546875 L 8.34375 -5.546875 C 8.5625 -5.546875 8.71875 -5.375 8.8125 -5.03125 C 8.863281 -4.84375 8.890625 -4.664062 8.890625 -4.5 C 8.890625 -4.332031 8.863281 -4.15625 8.8125 -3.96875 C 8.71875 -3.625 8.5625 -3.453125 8.34375 -3.453125 Z M 8.34375 -3.453125 "/></g></g></g><g fill="#ffffef" fill-opacity="1"><g transform="translate(238.322152, 225.129084)"><g><path d="M 1.375 -4.421875 C 1.601562 -4.242188 2 -3.992188 2.5625 -3.671875 C 3.125 -3.359375 3.660156 -3.203125 4.171875 -3.203125 C 4.691406 -3.203125 4.953125 -3.40625 4.953125 -3.8125 C 4.953125 -3.988281 4.878906 -4.144531 4.734375 -4.28125 C 4.585938 -4.425781 4.320312 -4.585938 3.9375 -4.765625 C 3.550781 -4.953125 3.257812 -5.09375 3.0625 -5.1875 C 2.875 -5.289062 2.617188 -5.460938 2.296875 -5.703125 C 1.972656 -5.941406 1.726562 -6.1875 1.5625 -6.4375 C 1.070312 -7.125 0.828125 -8 0.828125 -9.0625 C 0.828125 -10.132812 1.222656 -11.035156 2.015625 -11.765625 C 2.804688 -12.492188 3.847656 -12.859375 5.140625 -12.859375 C 6.003906 -12.859375 6.804688 -12.765625 7.546875 -12.578125 C 8.285156 -12.390625 8.664062 -12.144531 8.6875 -11.84375 C 8.6875 -11.8125 8.6875 -11.773438 8.6875 -11.734375 C 8.6875 -11.316406 8.550781 -10.78125 8.28125 -10.125 C 8.019531 -9.476562 7.835938 -9.117188 7.734375 -9.046875 C 6.953125 -9.453125 6.253906 -9.65625 5.640625 -9.65625 C 5.035156 -9.65625 4.734375 -9.4375 4.734375 -9 C 4.734375 -8.726562 4.957031 -8.492188 5.40625 -8.296875 C 5.5 -8.242188 5.632812 -8.175781 5.8125 -8.09375 C 6 -8.007812 6.207031 -7.910156 6.4375 -7.796875 C 6.675781 -7.679688 6.929688 -7.535156 7.203125 -7.359375 C 7.484375 -7.179688 7.78125 -6.945312 8.09375 -6.65625 C 8.726562 -6.050781 9.046875 -5.253906 9.046875 -4.265625 C 9.046875 -2.972656 8.6875 -1.914062 7.96875 -1.09375 C 7.257812 -0.269531 6.164062 0.15625 4.6875 0.1875 C 3.957031 0.1875 3.296875 0.125 2.703125 0 C 2.117188 -0.125 1.609375 -0.359375 1.171875 -0.703125 C 0.742188 -1.054688 0.53125 -1.476562 0.53125 -1.96875 C 0.53125 -2.46875 0.617188 -2.960938 0.796875 -3.453125 C 0.972656 -3.941406 1.164062 -4.265625 1.375 -4.421875 Z M 1.375 -4.421875 "/></g></g></g><g fill="#ffffef" fill-opacity="1"><g transform="translate(248.986943, 225.129084)"><g><path d="M 7.21875 -12.09375 C 7.375 -12.519531 8.148438 -12.734375 9.546875 -12.734375 C 9.890625 -12.734375 10.300781 -12.707031 10.78125 -12.65625 C 11.257812 -12.613281 11.484375 -12.554688 11.453125 -12.484375 L 7.671875 -4.890625 L 7.671875 -0.46875 C 7.671875 -0.257812 7.335938 -0.113281 6.671875 -0.03125 C 6.335938 0.0078125 6.003906 0.03125 5.671875 0.03125 C 5.347656 0.03125 5.023438 0.015625 4.703125 -0.015625 C 4.035156 -0.0976562 3.703125 -0.25 3.703125 -0.46875 L 3.703125 -4.796875 L -0.203125 -12.4375 C -0.242188 -12.507812 0.00390625 -12.578125 0.546875 -12.640625 C 1.085938 -12.710938 1.546875 -12.75 1.921875 -12.75 C 3.410156 -12.75 4.226562 -12.53125 4.375 -12.09375 L 5.703125 -8.40625 Z M 7.21875 -12.09375 "/></g></g></g><g fill="#ffffef" fill-opacity="1"><g transform="translate(261.175145, 225.129084)"><g><path d="M 1.375 -4.421875 C 1.601562 -4.242188 2 -3.992188 2.5625 -3.671875 C 3.125 -3.359375 3.660156 -3.203125 4.171875 -3.203125 C 4.691406 -3.203125 4.953125 -3.40625 4.953125 -3.8125 C 4.953125 -3.988281 4.878906 -4.144531 4.734375 -4.28125 C 4.585938 -4.425781 4.320312 -4.585938 3.9375 -4.765625 C 3.550781 -4.953125 3.257812 -5.09375 3.0625 -5.1875 C 2.875 -5.289062 2.617188 -5.460938 2.296875 -5.703125 C 1.972656 -5.941406 1.726562 -6.1875 1.5625 -6.4375 C 1.070312 -7.125 0.828125 -8 0.828125 -9.0625 C 0.828125 -10.132812 1.222656 -11.035156 2.015625 -11.765625 C 2.804688 -12.492188 3.847656 -12.859375 5.140625 -12.859375 C 6.003906 -12.859375 6.804688 -12.765625 7.546875 -12.578125 C 8.285156 -12.390625 8.664062 -12.144531 8.6875 -11.84375 C 8.6875 -11.8125 8.6875 -11.773438 8.6875 -11.734375 C 8.6875 -11.316406 8.550781 -10.78125 8.28125 -10.125 C 8.019531 -9.476562 7.835938 -9.117188 7.734375 -9.046875 C 6.953125 -9.453125 6.253906 -9.65625 5.640625 -9.65625 C 5.035156 -9.65625 4.734375 -9.4375 4.734375 -9 C 4.734375 -8.726562 4.957031 -8.492188 5.40625 -8.296875 C 5.5 -8.242188 5.632812 -8.175781 5.8125 -8.09375 C 6 -8.007812 6.207031 -7.910156 6.4375 -7.796875 C 6.675781 -7.679688 6.929688 -7.535156 7.203125 -7.359375 C 7.484375 -7.179688 7.78125 -6.945312 8.09375 -6.65625 C 8.726562 -6.050781 9.046875 -5.253906 9.046875 -4.265625 C 9.046875 -2.972656 8.6875 -1.914062 7.96875 -1.09375 C 7.257812 -0.269531 6.164062 0.15625 4.6875 0.1875 C 3.957031 0.1875 3.296875 0.125 2.703125 0 C 2.117188 -0.125 1.609375 -0.359375 1.171875 -0.703125 C 0.742188 -1.054688 0.53125 -1.476562 0.53125 -1.96875 C 0.53125 -2.46875 0.617188 -2.960938 0.796875 -3.453125 C 0.972656 -3.941406 1.164062 -4.265625 1.375 -4.421875 Z M 1.375 -4.421875 "/></g></g></g><g fill="#ffffef" fill-opacity="1"><g transform="translate(271.839935, 225.129084)"><g><path d="M 6.375 -0.296875 C 6.375 -0.046875 5.773438 0.078125 4.578125 0.078125 C 3.378906 0.078125 2.78125 -0.046875 2.78125 -0.296875 L 2.78125 -9.390625 L 0.59375 -9.390625 C 0.394531 -9.390625 0.25 -9.671875 0.15625 -10.234375 C 0.125 -10.492188 0.109375 -10.765625 0.109375 -11.046875 C 0.109375 -11.328125 0.125 -11.597656 0.15625 -11.859375 C 0.25 -12.421875 0.394531 -12.703125 0.59375 -12.703125 L 8.484375 -12.703125 C 8.691406 -12.703125 8.835938 -12.421875 8.921875 -11.859375 C 8.960938 -11.597656 8.984375 -11.328125 8.984375 -11.046875 C 8.984375 -10.765625 8.960938 -10.492188 8.921875 -10.234375 C 8.835938 -9.671875 8.691406 -9.390625 8.484375 -9.390625 L 6.375 -9.390625 Z M 6.375 -0.296875 "/></g></g></g><g fill="#ffffef" fill-opacity="1"><g transform="translate(281.978797, 225.129084)"><g><path d="M 6.796875 -7.65625 C 7.023438 -7.65625 7.140625 -7.234375 7.140625 -6.390625 C 7.140625 -6.128906 7.113281 -5.828125 7.0625 -5.484375 C 7.007812 -5.140625 6.910156 -4.96875 6.765625 -4.96875 L 4.46875 -4.96875 L 4.46875 -3.15625 L 7.796875 -3.15625 C 8.003906 -3.15625 8.144531 -2.890625 8.21875 -2.359375 C 8.25 -2.128906 8.265625 -1.882812 8.265625 -1.625 C 8.265625 -1.363281 8.226562 -1.023438 8.15625 -0.609375 C 8.082031 -0.203125 7.960938 0 7.796875 0 L 1.59375 0 C 1.132812 0 0.90625 -0.1875 0.90625 -0.5625 L 0.90625 -12.234375 C 0.90625 -12.546875 1.046875 -12.703125 1.328125 -12.703125 L 7.8125 -12.703125 C 8.070312 -12.703125 8.203125 -12.164062 8.203125 -11.09375 C 8.203125 -10.019531 8.070312 -9.484375 7.8125 -9.484375 L 4.46875 -9.484375 L 4.46875 -7.65625 Z M 6.796875 -7.65625 "/></g></g></g><g fill="#ffffef" fill-opacity="1"><g transform="translate(291.954432, 225.129084)"><g><path d="M 13.609375 0.015625 C 12.523438 0.015625 11.984375 -0.101562 11.984375 -0.34375 L 11.609375 -7.625 L 9.390625 -0.25 C 9.347656 -0.101562 8.9375 -0.03125 8.15625 -0.03125 C 7.382812 -0.03125 6.988281 -0.0976562 6.96875 -0.234375 L 4.6875 -7.6875 L 4.421875 -0.453125 C 4.410156 -0.273438 4.179688 -0.148438 3.734375 -0.078125 C 3.285156 -0.015625 2.910156 0.015625 2.609375 0.015625 C 2.316406 0.015625 2.035156 0 1.765625 -0.03125 C 1.179688 -0.113281 0.894531 -0.265625 0.90625 -0.484375 L 1.328125 -12.28125 C 1.328125 -12.570312 2.0625 -12.71875 3.53125 -12.71875 C 3.96875 -12.71875 4.5 -12.679688 5.125 -12.609375 C 5.757812 -12.546875 6.113281 -12.421875 6.1875 -12.234375 L 8.21875 -6.515625 L 10 -12.25 C 10.101562 -12.5625 10.9375 -12.71875 12.5 -12.71875 C 12.945312 -12.71875 13.476562 -12.679688 14.09375 -12.609375 C 14.71875 -12.546875 15.03125 -12.429688 15.03125 -12.265625 L 15.5625 -0.359375 C 15.5625 -0.222656 15.328125 -0.125 14.859375 -0.0625 C 14.390625 -0.0078125 13.972656 0.015625 13.609375 0.015625 Z M 13.609375 0.015625 "/></g></g></g><g fill="#ffffef" fill-opacity="1"><g transform="translate(309.438297, 225.129084)"><g><path d="M 1.375 -4.421875 C 1.601562 -4.242188 2 -3.992188 2.5625 -3.671875 C 3.125 -3.359375 3.660156 -3.203125 4.171875 -3.203125 C 4.691406 -3.203125 4.953125 -3.40625 4.953125 -3.8125 C 4.953125 -3.988281 4.878906 -4.144531 4.734375 -4.28125 C 4.585938 -4.425781 4.320312 -4.585938 3.9375 -4.765625 C 3.550781 -4.953125 3.257812 -5.09375 3.0625 -5.1875 C 2.875 -5.289062 2.617188 -5.460938 2.296875 -5.703125 C 1.972656 -5.941406 1.726562 -6.1875 1.5625 -6.4375 C 1.070312 -7.125 0.828125 -8 0.828125 -9.0625 C 0.828125 -10.132812 1.222656 -11.035156 2.015625 -11.765625 C 2.804688 -12.492188 3.847656 -12.859375 5.140625 -12.859375 C 6.003906 -12.859375 6.804688 -12.765625 7.546875 -12.578125 C 8.285156 -12.390625 8.664062 -12.144531 8.6875 -11.84375 C 8.6875 -11.8125 8.6875 -11.773438 8.6875 -11.734375 C 8.6875 -11.316406 8.550781 -10.78125 8.28125 -10.125 C 8.019531 -9.476562 7.835938 -9.117188 7.734375 -9.046875 C 6.953125 -9.453125 6.253906 -9.65625 5.640625 -9.65625 C 5.035156 -9.65625 4.734375 -9.4375 4.734375 -9 C 4.734375 -8.726562 4.957031 -8.492188 5.40625 -8.296875 C 5.5 -8.242188 5.632812 -8.175781 5.8125 -8.09375 C 6 -8.007812 6.207031 -7.910156 6.4375 -7.796875 C 6.675781 -7.679688 6.929688 -7.535156 7.203125 -7.359375 C 7.484375 -7.179688 7.78125 -6.945312 8.09375 -6.65625 C 8.726562 -6.050781 9.046875 -5.253906 9.046875 -4.265625 C 9.046875 -2.972656 8.6875 -1.914062 7.96875 -1.09375 C 7.257812 -0.269531 6.164062 0.15625 4.6875 0.1875 C 3.957031 0.1875 3.296875 0.125 2.703125 0 C 2.117188 -0.125 1.609375 -0.359375 1.171875 -0.703125 C 0.742188 -1.054688 0.53125 -1.476562 0.53125 -1.96875 C 0.53125 -2.46875 0.617188 -2.960938 0.796875 -3.453125 C 0.972656 -3.941406 1.164062 -4.265625 1.375 -4.421875 Z M 1.375 -4.421875 "/></g></g></g></svg>